<svg xmlns="http://www.w3.org/2000/svg" width="1920" height="1080" viewBox="0 0 1920 1080">
  <defs>
    <radialGradient id="wallGlow" cx="0.5" cy="0.5" r="0.7">
      <stop offset="0" stop-color="#0a3164"/>
      <stop offset="0.55" stop-color="#04284f"/>
      <stop offset="1" stop-color="#011a3a"/>
    </radialGradient>
    <radialGradient id="lampGlow" cx="0.5" cy="0.5" r="0.5">
      <stop offset="0" stop-color="#f5c265" stop-opacity="0.18"/>
      <stop offset="0.5" stop-color="#f5c265" stop-opacity="0.06"/>
      <stop offset="1" stop-color="#f5c265" stop-opacity="0"/>
    </radialGradient>
    <linearGradient id="floor" x1="0" y1="0" x2="0" y2="1">
      <stop offset="0" stop-color="#011a3a" stop-opacity="0"/>
      <stop offset="1" stop-color="#000a1c" stop-opacity="0.55"/>
    </linearGradient>
  </defs>

  <rect width="1920" height="1080" fill="url(#wallGlow)"/>

  <ellipse cx="280" cy="900" rx="500" ry="300" fill="url(#lampGlow)"/>

  <g fill="#68F98F" opacity="0.22">
    <circle cx="120" cy="120" r="2.2"/>
    <circle cx="220" cy="80" r="2"/>
    <circle cx="320" cy="140" r="2.4"/>
    <circle cx="420" cy="90" r="2"/>
    <circle cx="520" cy="160" r="2.2"/>
    <circle cx="640" cy="110" r="2"/>
    <circle cx="760" cy="180" r="2.4"/>
    <circle cx="880" cy="120" r="2"/>
    <circle cx="1000" cy="200" r="2.2"/>
    <circle cx="1120" cy="140" r="2"/>
    <circle cx="1240" cy="100" r="2.4"/>
    <circle cx="1360" cy="170" r="2"/>
    <circle cx="1480" cy="120" r="2.2"/>
    <circle cx="1600" cy="190" r="2"/>
    <circle cx="1720" cy="130" r="2.4"/>
    <circle cx="1820" cy="80" r="2"/>
    <circle cx="180" cy="220" r="1.8"/>
    <circle cx="380" cy="260" r="2"/>
    <circle cx="580" cy="240" r="1.8"/>
    <circle cx="780" cy="280" r="2"/>
    <circle cx="980" cy="250" r="1.8"/>
    <circle cx="1180" cy="280" r="2"/>
    <circle cx="1380" cy="240" r="1.8"/>
    <circle cx="1580" cy="270" r="2"/>
    <circle cx="1780" cy="220" r="1.8"/>
  </g>

  <g stroke="#68F98F" stroke-width="0.6" opacity="0.14" fill="none">
    <line x1="120" y1="120" x2="220" y2="80"/>
    <line x1="220" y1="80" x2="320" y2="140"/>
    <line x1="320" y1="140" x2="420" y2="90"/>
    <line x1="420" y1="90" x2="520" y2="160"/>
    <line x1="520" y1="160" x2="640" y2="110"/>
    <line x1="640" y1="110" x2="760" y2="180"/>
    <line x1="760" y1="180" x2="880" y2="120"/>
    <line x1="880" y1="120" x2="1000" y2="200"/>
    <line x1="1000" y1="200" x2="1120" y2="140"/>
    <line x1="1120" y1="140" x2="1240" y2="100"/>
    <line x1="1240" y1="100" x2="1360" y2="170"/>
    <line x1="1360" y1="170" x2="1480" y2="120"/>
    <line x1="1480" y1="120" x2="1600" y2="190"/>
    <line x1="1600" y1="190" x2="1720" y2="130"/>
    <line x1="1720" y1="130" x2="1820" y2="80"/>
    <line x1="180" y1="220" x2="380" y2="260"/>
    <line x1="380" y1="260" x2="580" y2="240"/>
    <line x1="580" y1="240" x2="780" y2="280"/>
    <line x1="780" y1="280" x2="980" y2="250"/>
    <line x1="980" y1="250" x2="1180" y2="280"/>
    <line x1="1180" y1="280" x2="1380" y2="240"/>
    <line x1="1380" y1="240" x2="1580" y2="270"/>
    <line x1="1580" y1="270" x2="1780" y2="220"/>
    <line x1="320" y1="140" x2="380" y2="260"/>
    <line x1="640" y1="110" x2="580" y2="240"/>
    <line x1="1000" y1="200" x2="980" y2="250"/>
    <line x1="1360" y1="170" x2="1380" y2="240"/>
  </g>

  <g fill="#68F98F" opacity="0.18">
    <circle cx="160" cy="980" r="2"/>
    <circle cx="320" cy="1020" r="2.2"/>
    <circle cx="480" cy="990" r="2"/>
    <circle cx="640" cy="1030" r="2.4"/>
    <circle cx="800" cy="1000" r="2"/>
    <circle cx="960" cy="1040" r="2.2"/>
    <circle cx="1120" cy="995" r="2"/>
    <circle cx="1280" cy="1030" r="2.4"/>
    <circle cx="1440" cy="1000" r="2"/>
    <circle cx="1600" cy="1035" r="2.2"/>
    <circle cx="1760" cy="990" r="2"/>
  </g>
  <g stroke="#68F98F" stroke-width="0.6" opacity="0.12" fill="none">
    <line x1="160" y1="980" x2="320" y2="1020"/>
    <line x1="320" y1="1020" x2="480" y2="990"/>
    <line x1="480" y1="990" x2="640" y2="1030"/>
    <line x1="640" y1="1030" x2="800" y2="1000"/>
    <line x1="800" y1="1000" x2="960" y2="1040"/>
    <line x1="960" y1="1040" x2="1120" y2="995"/>
    <line x1="1120" y1="995" x2="1280" y2="1030"/>
    <line x1="1280" y1="1030" x2="1440" y2="1000"/>
    <line x1="1440" y1="1000" x2="1600" y2="1035"/>
    <line x1="1600" y1="1035" x2="1760" y2="990"/>
  </g>

  <rect x="0" y="820" width="1920" height="260" fill="url(#floor)"/>
  <line x1="0" y1="820" x2="1920" y2="820" stroke="#68F98F" stroke-width="0.5" opacity="0.12"/>

  <g transform="translate(960,560)" opacity="0.10">
    <text x="0" y="0" text-anchor="middle" style="font-family:'Helvetica Neue',Arial,sans-serif;font-size:340px;font-weight:800;fill:#ffffff;letter-spacing:18px">PGH</text>
    <text x="0" y="80" text-anchor="middle" style="font-family:'Helvetica Neue',Arial,sans-serif;font-size:64px;font-weight:500;fill:#68F98F;letter-spacing:38px">NETWORKS</text>
  </g>

  <g transform="translate(1620,160)">
    <rect x="-180" y="-70" width="360" height="140" fill="#011a3a" fill-opacity="0.55" stroke="#68F98F" stroke-width="1" stroke-opacity="0.55"/>
    <text x="0" y="14" text-anchor="middle" style="font-family:'Helvetica Neue',Arial,sans-serif;font-size:64px;font-weight:800;fill:#ffffff;letter-spacing:4px">PGH</text>
    <text x="0" y="52" text-anchor="middle" style="font-family:'Helvetica Neue',Arial,sans-serif;font-size:18px;font-weight:500;fill:#68F98F;letter-spacing:14px">NETWORKS</text>
  </g>

  <g transform="translate(1620,225)">
    <line x1="-140" y1="0" x2="140" y2="0" stroke="#68F98F" stroke-width="1.2" opacity="0.7"/>
    <circle cx="-140" cy="0" r="3" fill="#68F98F" opacity="0.7"/>
    <circle cx="140" cy="0" r="3" fill="#68F98F" opacity="0.7"/>
  </g>
</svg>
